<svg width="43" height="44" viewBox="0 0 43 44" fill="none" xmlns="http://www.w3.org/2000/svg">
<g filter="url(#filter0_d_27_5)">
<rect x="4.5" y="1.47998" width="34" height="34" rx="17" stroke="#999999" shape-rendering="crispEdges"/>
<path d="M22 14.8862C23.9688 14.8862 25.5938 16.5112 25.5938 18.48C25.5938 20.48 23.9688 22.0737 22 22.0737C20 22.0737 18.4062 20.48 18.4062 18.48C18.4062 16.5112 20 14.8862 22 14.8862ZM22 20.8237C23.2812 20.8237 24.3125 19.7925 24.3125 18.48C24.3125 17.1987 23.2812 16.1675 22 16.1675C20.6875 16.1675 19.6562 17.1987 19.6562 18.48C19.6562 19.7925 20.7188 20.8237 22 20.8237ZM26.5625 14.7612C26.5625 15.23 26.1875 15.605 25.7188 15.605C25.25 15.605 24.875 15.23 24.875 14.7612C24.875 14.2925 25.25 13.9175 25.7188 13.9175C26.1875 13.9175 26.5625 14.2925 26.5625 14.7612ZM28.9375 15.605C29 16.7612 29 20.23 28.9375 21.3862C28.875 22.5112 28.625 23.48 27.8125 24.3237C27 25.1362 26 25.3862 24.875 25.4487C23.7188 25.5112 20.25 25.5112 19.0938 25.4487C17.9688 25.3862 17 25.1362 16.1562 24.3237C15.3438 23.48 15.0938 22.5112 15.0312 21.3862C14.9688 20.23 14.9688 16.7612 15.0312 15.605C15.0938 14.48 15.3438 13.48 16.1562 12.6675C17 11.855 17.9688 11.605 19.0938 11.5425C20.25 11.48 23.7188 11.48 24.875 11.5425C26 11.605 27 11.855 27.8125 12.6675C28.625 13.48 28.875 14.48 28.9375 15.605ZM27.4375 22.605C27.8125 21.6987 27.7188 19.5112 27.7188 18.48C27.7188 17.48 27.8125 15.2925 27.4375 14.355C27.1875 13.7612 26.7188 13.2612 26.125 13.0425C25.1875 12.6675 23 12.7612 22 12.7612C20.9688 12.7612 18.7812 12.6675 17.875 13.0425C17.25 13.2925 16.7812 13.7612 16.5312 14.355C16.1562 15.2925 16.25 17.48 16.25 18.48C16.25 19.5112 16.1562 21.6987 16.5312 22.605C16.7812 23.23 17.25 23.6987 17.875 23.9487C18.7812 24.3237 20.9688 24.23 22 24.23C23 24.23 25.1875 24.3237 26.125 23.9487C26.7188 23.6987 27.2188 23.23 27.4375 22.605Z" fill="#999999"/>
</g>
<defs>
<filter id="filter0_d_27_5" x="0" y="0.97998" width="43" height="43" filterUnits="userSpaceOnUse" color-interpolation-filters="sRGB">
<feFlood flood-opacity="0" result="BackgroundImageFix"/>
<feColorMatrix in="SourceAlpha" type="matrix" values="0 0 0 0 0 0 0 0 0 0 0 0 0 0 0 0 0 0 127 0" result="hardAlpha"/>
<feOffset dy="4"/>
<feGaussianBlur stdDeviation="2"/>
<feComposite in2="hardAlpha" operator="out"/>
<feColorMatrix type="matrix" values="0 0 0 0 0 0 0 0 0 0 0 0 0 0 0 0 0 0 0.25 0"/>
<feBlend mode="normal" in2="BackgroundImageFix" result="effect1_dropShadow_27_5"/>
<feBlend mode="normal" in="SourceGraphic" in2="effect1_dropShadow_27_5" result="shape"/>
</filter>
</defs>
</svg>
