<svg width="35" height="36" viewBox="0 0 35 36" fill="none" xmlns="http://www.w3.org/2000/svg">
<rect x="0.5" y="1.47998" width="34" height="34" rx="17" stroke="#999999"/>
<path d="M25.0312 14.1675C24.7812 15.23 22.5312 18.4175 22.5312 18.4175C22.3438 18.73 22.25 18.8862 22.5312 19.23C22.6562 19.3862 25 21.6362 25.3438 22.6987C25.5 23.23 25.25 23.48 24.7188 23.48H22.875C22.1875 23.48 21.9688 22.9487 20.7188 21.6987C19.625 20.6362 19.1562 20.48 18.875 20.48C18.3125 20.48 18.4062 20.6987 18.4062 22.7925C18.4062 23.23 18.25 23.48 17.0938 23.48C15.1562 23.48 13 22.3237 11.4688 20.1362C9.1875 16.9175 8.5625 14.5112 8.5625 14.0112C8.5625 13.73 8.6875 13.48 9.1875 13.48H11.0312C11.5 13.48 11.6875 13.6987 11.875 14.1987C12.7812 16.8237 14.2812 19.1362 14.9062 19.1362C15.1562 19.1362 15.25 19.0112 15.25 18.4175V15.6987C15.1875 14.4487 14.5312 14.355 14.5312 13.9175C14.5312 13.6987 14.6875 13.48 15 13.48H17.875C18.2812 13.48 18.4062 13.6987 18.4062 14.1675V17.8237C18.4062 18.1987 18.5938 18.355 18.6875 18.355C18.9375 18.355 19.125 18.1987 19.5625 17.7925C20.875 16.2925 21.8125 14.0112 21.8125 14.0112C21.9375 13.73 22.1562 13.48 22.625 13.48H24.4688C25.0312 13.48 25.125 13.7925 25.0312 14.1675Z" fill="#999999"/>
</svg>
