<svg width="35" height="36" viewBox="0 0 35 36" fill="none" xmlns="http://www.w3.org/2000/svg">
<rect x="0.5" y="1.47998" width="34" height="34" rx="17" stroke="#999999"/>
<path d="M22.8594 12.1753C24.3359 13.6519 25.25 15.5854 25.25 17.6948C25.25 21.9839 21.6641 25.4995 17.3398 25.4995C16.0391 25.4995 14.7734 25.1479 13.6133 24.5503L9.5 25.605L10.5898 21.562C9.92188 20.4019 9.53516 19.0659 9.53516 17.6597C9.53516 13.3706 13.0508 9.85498 17.3398 9.85498C19.4492 9.85498 21.418 10.6987 22.8594 12.1753ZM17.3398 24.1636C20.9258 24.1636 23.9141 21.2456 23.9141 17.6948C23.9141 15.937 23.1758 14.3198 21.9453 13.0894C20.7148 11.8589 19.0977 11.1909 17.375 11.1909C13.7891 11.1909 10.8711 14.1089 10.8711 17.6597C10.8711 18.8901 11.2227 20.0854 11.8555 21.1401L12.0312 21.3862L11.3633 23.7769L13.8242 23.1089L14.0352 23.2495C15.0547 23.8472 16.1797 24.1636 17.3398 24.1636ZM20.9258 19.312C21.1016 19.4175 21.2422 19.4526 21.2773 19.5581C21.3477 19.6284 21.3477 20.0151 21.1719 20.4722C20.9961 20.9292 20.2227 21.3511 19.8711 21.3862C19.2383 21.4917 18.7461 21.4565 17.5156 20.894C15.5469 20.0503 14.2812 18.0815 14.1758 17.9761C14.0703 17.8354 13.4023 16.9214 13.4023 15.937C13.4023 14.9878 13.8945 14.5308 14.0703 14.3198C14.2461 14.1089 14.457 14.0737 14.5977 14.0737C14.7031 14.0737 14.8438 14.0737 14.9492 14.0737C15.0898 14.0737 15.2305 14.0386 15.4062 14.4253C15.5469 14.812 15.9688 15.7612 16.0039 15.8667C16.0391 15.9722 16.0742 16.0776 16.0039 16.2183C15.6523 16.9565 15.2305 16.9214 15.4414 17.2729C16.2148 18.5737 16.9531 19.0308 18.1133 19.5933C18.2891 19.6987 18.3945 19.6636 18.5352 19.5581C18.6406 19.4175 19.0273 18.9604 19.1328 18.7847C19.2734 18.5737 19.4141 18.6089 19.5898 18.6792C19.7656 18.7495 20.7148 19.2065 20.9258 19.312Z" fill="#999999"/>
</svg>
