<svg width="35" height="36" viewBox="0 0 35 36" fill="none" xmlns="http://www.w3.org/2000/svg">
<rect x="0.5" y="1.47998" width="34" height="34" rx="17" stroke="#999999"/>
<path d="M25.6562 14.3862C26.0312 15.6987 26.0312 18.5112 26.0312 18.5112C26.0312 18.5112 26.0312 21.2925 25.6562 22.6362C25.4688 23.3862 24.875 23.9487 24.1562 24.1362C22.8125 24.48 17.5 24.48 17.5 24.48C17.5 24.48 12.1562 24.48 10.8125 24.1362C10.0938 23.9487 9.5 23.3862 9.3125 22.6362C8.9375 21.2925 8.9375 18.5112 8.9375 18.5112C8.9375 18.5112 8.9375 15.6987 9.3125 14.3862C9.5 13.6362 10.0938 13.0425 10.8125 12.855C12.1562 12.48 17.5 12.48 17.5 12.48C17.5 12.48 22.8125 12.48 24.1562 12.855C24.875 13.0425 25.4688 13.6362 25.6562 14.3862ZM15.75 21.0425L20.1875 18.5112L15.75 15.98V21.0425Z" fill="#999999"/>
</svg>
